<svg xmlns="http://www.w3.org/2000/svg" xmlns:xlink="http://www.w3.org/1999/xlink" viewBox="0,0,256,256" width="80px" height="80px" fill-rule="nonzero"><g fill="none" fill-rule="nonzero" stroke="none" stroke-width="1" stroke-linecap="butt" stroke-linejoin="miter" stroke-miterlimit="10" stroke-dasharray="" stroke-dashoffset="0" font-family="none" font-weight="none" font-size="none" text-anchor="none" style="mix-blend-mode: normal"><g transform="scale(3.2,3.2)"><path d="M40,2c-20.98682,0 -38,17.01318 -38,38c0,20.98682 17.01318,38 38,38c20.98682,0 38,-17.01318 38,-38c0,-20.98682 -17.01318,-38 -38,-38z" fill="#003e8f"></path><path d="M77.784,44.013c0.006,-0.054 0.016,-0.106 0.021,-0.159c-0.005,0.053 -0.015,0.106 -0.021,0.159zM2.194,43.84c0.007,0.073 0.021,0.144 0.029,0.217c-0.008,-0.072 -0.022,-0.145 -0.029,-0.217zM44.907,50.471h9.835l1.544,-9.989h-11.379v-5.46c0,-4.149 1.356,-7.83 5.239,-7.83h6.238v-8.719c-1.097,-0.148 -3.414,-0.473 -7.794,-0.473c-9.146,0 -14.507,4.831 -14.507,15.835v6.647h-9.402v9.989h9.402v26.929c1.858,0.279 3.744,0.47 5.68,0.47c1.749,0 3.458,-0.159 5.144,-0.388z" fill="#ffffff"></path><g fill="#003a88"><path d="M40,3c20.402,0 37,16.598 37,37c0,20.402 -16.598,37 -37,37c-20.402,0 -37,-16.598 -37,-37c0,-20.402 16.598,-37 37,-37M40,2c-20.987,0 -38,17.013 -38,38c0,20.987 17.013,38 38,38c20.987,0 38,-17.013 38,-38c0,-20.987 -17.013,-38 -38,-38z"></path></g></g></g></svg>